<svg width="24" height="22" viewBox="0 0 24 22" fill="none" xmlns="http://www.w3.org/2000/svg">
<path d="M22.6499 13.3902L11.9999 21.1302L1.3499 13.3902C1.20713 13.2852 1.10122 13.1377 1.04733 12.9689C0.99345 12.8001 0.994348 12.6185 1.0499 12.4502L2.2699 8.67021L4.7099 1.16021C4.73357 1.09901 4.77124 1.04421 4.8199 1.00021C4.89914 0.927827 5.00258 0.887695 5.1099 0.887695C5.21722 0.887695 5.32066 0.927827 5.3999 1.00021C5.45128 1.04987 5.48914 1.11182 5.5099 1.18021L7.9499 8.67021H16.0499L18.4899 1.16021C18.5136 1.09901 18.5512 1.04421 18.5999 1.00021C18.6791 0.927827 18.7826 0.887695 18.8899 0.887695C18.9972 0.887695 19.1007 0.927827 19.1799 1.00021C19.2313 1.04987 19.2691 1.11182 19.2899 1.18021L21.7299 8.6902L22.9999 12.4502C23.0504 12.6237 23.0437 12.8088 22.9806 12.9782C22.9176 13.1475 22.8016 13.292 22.6499 13.3902V13.3902Z" stroke="white" stroke-linecap="round" stroke-linejoin="round"/>
</svg>
